<svg xmlns="http://www.w3.org/2000/svg" width="160" height="36" viewBox="0 0 160 36" fill="none">
<path d="M59.4961 9.24219H63.2391V22.3659H71.349V25.4158H59.4961V9.24219Z" fill="#081131"/>
<path d="M142.386 12.9852L137.141 25.4158H133.421L128.199 12.9852H131.919L135.362 21.4417L138.92 12.9852H142.386Z" fill="#081131"/>
<path fill-rule="evenodd" clip-rule="evenodd" d="M107.899 13.1701L107.86 19.1065L107.822 24.8657C107.822 26.098 107.529 27.1994 106.944 28.1698C106.358 29.1402 105.55 29.9027 104.518 30.4572C104.406 30.5158 104.282 30.5712 104.148 30.6234C103.051 31.0517 101.306 31.2659 100.139 31.2659C98.8301 31.2659 96.7853 30.9963 95.7379 30.4572C94.7058 29.9027 93.8971 29.1402 93.3118 28.1698L96.9855 27.3842C97.5863 28.0003 99.2152 28.3084 100.139 28.3084C101.064 28.3084 102.685 28.0003 103.27 27.3842C103.871 26.7527 104.171 25.9132 104.171 24.8657C103.075 25.294 101.383 25.5082 100.216 25.5082C98.9068 25.5082 96.862 25.2386 95.8146 24.6995C94.7826 24.145 93.9739 23.3825 93.3886 22.4121C92.8032 21.4417 92.5106 20.3403 92.5106 19.1081C92.5106 17.8758 92.8032 16.7744 93.3886 15.804C93.9739 14.8336 94.7826 14.0789 95.8146 13.5397C96.862 12.9852 98.9068 12.708 100.216 12.708C101.478 12.708 103.416 12.9656 104.479 13.4808V13.1701H107.899ZM103.347 21.6265C102.762 22.2426 101.14 22.5507 100.216 22.5507C99.2919 22.5507 97.663 22.2426 97.0623 21.6265C96.4615 20.995 96.1612 20.1555 96.1612 19.1081C96.1612 18.0606 96.4615 17.2288 97.0623 16.6127C97.663 15.9812 99.2919 15.6654 100.216 15.6654C101.14 15.6654 102.762 15.9812 103.347 16.6127C103.948 17.2288 104.248 18.0606 104.248 19.1081C104.248 20.1555 103.948 20.995 103.347 21.6265Z" fill="#081131"/>
<path fill-rule="evenodd" clip-rule="evenodd" d="M77.489 24.6995C78.5364 25.2386 80.5812 25.5082 81.8905 25.5082C83.1998 25.5082 85.2369 25.2386 86.2689 24.6995C87.301 24.145 88.1096 23.3825 88.695 22.4121C89.2803 21.4417 89.573 20.3403 89.573 19.1081C89.573 17.8758 89.2803 16.7744 88.695 15.804C88.1096 14.8336 87.301 14.0789 86.2689 13.5397C85.2369 12.9852 83.1998 12.708 81.8905 12.708C80.5812 12.708 78.5364 12.9852 77.489 13.5397C76.457 14.0789 75.6483 14.8336 75.063 15.804C74.4776 16.7744 74.185 17.8758 74.185 19.1081C74.185 20.3403 74.4776 21.4417 75.063 22.4121C75.6483 23.3825 76.457 24.145 77.489 24.6995ZM79.27 22.3603C79.8749 22.6644 81.0558 22.8164 81.8119 22.8164C82.568 22.8164 83.7444 22.6644 84.3404 22.3603C84.9364 22.0475 85.4034 21.6174 85.7415 21.07C86.0795 20.5226 86.2485 19.9014 86.2485 19.2063C86.2485 18.5112 86.0795 17.8899 85.7415 17.3425C85.4034 16.7951 84.9364 16.3694 84.3404 16.0653C83.7444 15.7525 82.568 15.5961 81.8119 15.5961C81.0558 15.5961 79.8749 15.7525 79.27 16.0653C78.674 16.3694 78.207 16.7951 77.869 17.3425C77.5309 17.8899 77.3619 18.5112 77.3619 19.2063C77.3619 19.9014 77.5309 20.5226 77.869 21.07C78.207 21.6174 78.674 22.0475 79.27 22.3603Z" fill="#081131"/>
<path fill-rule="evenodd" clip-rule="evenodd" d="M114.353 24.6995C115.401 25.2386 117.446 25.5082 118.755 25.5082C120.064 25.5082 122.101 25.2386 123.133 24.6995C124.165 24.145 124.974 23.3825 125.559 22.4121C126.145 21.4417 126.437 20.3403 126.437 19.1081C126.437 17.8758 126.145 16.7744 125.559 15.804C124.974 14.8336 124.165 14.0789 123.133 13.5397C122.101 12.9852 120.064 12.708 118.755 12.708C117.446 12.708 115.401 12.9852 114.353 13.5397C113.321 14.0789 112.513 14.8336 111.927 15.804C111.342 16.7744 111.049 17.8758 111.049 19.1081C111.049 20.3403 111.342 21.4417 111.927 22.4121C112.513 23.3825 113.321 24.145 114.353 24.6995ZM116.134 22.3603C116.739 22.6644 117.92 22.8164 118.676 22.8164C119.432 22.8164 120.609 22.6644 121.205 22.3603C121.801 22.0475 122.268 21.6174 122.606 21.07C122.944 20.5226 123.113 19.9014 123.113 19.2063C123.113 18.5112 122.944 17.8899 122.606 17.3425C122.268 16.7951 121.801 16.3694 121.205 16.0653C120.609 15.7525 119.432 15.5961 118.676 15.5961C117.92 15.5961 116.739 15.7525 116.134 16.0653C115.538 16.3694 115.071 16.7951 114.733 17.3425C114.395 17.8899 114.226 18.5112 114.226 19.2063C114.226 19.9014 114.395 20.5226 114.733 21.07C115.071 21.6174 115.538 22.0475 116.134 22.3603Z" fill="#081131"/>
<path fill-rule="evenodd" clip-rule="evenodd" d="M147.486 24.9768C148.533 25.5159 150.578 25.7854 151.888 25.7854C153.197 25.7854 155.234 25.5159 156.266 24.9768C157.298 24.4222 158.107 23.6598 158.692 22.6893C159.277 21.7189 159.57 20.6176 159.57 19.3853C159.57 18.153 159.277 17.0517 158.692 16.0813C158.107 15.1109 157.298 14.3561 156.266 13.817C155.234 13.2625 153.197 12.9852 151.888 12.9852C150.578 12.9852 148.533 13.2625 147.486 13.817C146.454 14.3561 145.645 15.1109 145.06 16.0813C144.475 17.0517 144.182 18.153 144.182 19.3853C144.182 20.6176 144.475 21.7189 145.06 22.6893C145.645 23.6598 146.454 24.4222 147.486 24.9768ZM149.267 22.6375C149.872 22.9416 151.053 23.0937 151.809 23.0937C152.565 23.0937 153.741 22.9416 154.337 22.6375C154.933 22.3247 155.4 21.8946 155.738 21.3473C156.077 20.7999 156.246 20.1786 156.246 19.4835C156.246 18.7884 156.077 18.1672 155.738 17.6198C155.4 17.0724 154.933 16.6466 154.337 16.3425C153.741 16.0297 152.565 15.8733 151.809 15.8733C151.053 15.8733 149.872 16.0297 149.267 16.3425C148.671 16.6466 148.204 17.0724 147.866 17.6198C147.528 18.1672 147.359 18.7884 147.359 19.4835C147.359 20.1786 147.528 20.7999 147.866 21.3473C148.204 21.8946 148.671 22.3247 149.267 22.6375Z" fill="#081131"/>
<path d="M0 18C0 8.05887 8.05887 0 18 0H25.322C35.2632 0 43.322 8.05887 43.322 18V18C43.322 27.9411 35.2632 36 25.322 36H18C8.05887 36 0 27.9411 0 18V18Z" fill="#E0EBFF"/>
<path fill-rule="evenodd" clip-rule="evenodd" d="M43.1865 20.2268C42.1272 28.81 35.0255 35.5218 26.2685 35.975H23.9094C16.2878 35.975 10.1094 29.7965 10.1094 22.175C10.1094 14.5535 16.2878 8.375 23.9094 8.375H29.5229C36.4832 8.375 42.2399 13.5278 43.1865 20.2268Z" fill="#B8D1FF"/>
<path fill-rule="evenodd" clip-rule="evenodd" d="M42.7503 22.519C40.8358 29.9233 34.3273 35.4794 26.4469 35.9652C21.8834 34.8988 18.4844 30.8042 18.4844 25.9157C18.4844 20.2161 23.1048 15.5957 28.8044 15.5957H33.0023C37.5119 15.5957 41.3459 18.4881 42.7503 22.519Z" fill="#6AA0FF"/>
<path fill-rule="evenodd" clip-rule="evenodd" d="M42.1518 24.3981C40.0499 29.9242 35.3045 34.1472 29.4606 35.5223C26.7403 34.3405 24.8379 31.6299 24.8379 28.4749C24.8379 24.2334 28.2763 20.7949 32.5179 20.7949H35.642C38.3858 20.7949 40.7935 22.2338 42.1518 24.3981Z" fill="#0059F7"/>
</svg>