<svg xmlns="http://www.w3.org/2000/svg" width="644" height="476" viewBox="0 0 644 476" fill="none">
<g clip-path="url(#clip0)">
<path d="M182.754 367.719C285.208 438.232 578.382 439.353 566.462 235.018C554.543 30.6836 426.303 -23.6815 248.364 3.48071C70.4253 30.6429 80.2992 297.206 182.754 367.719Z" fill="url(#paint0_linear)" fill-opacity="0.54"/>
<path d="M177.479 73.4579C272.588 3.51663 550.701 -6.25387 545.461 187.961C540.222 382.176 420.169 437.563 250.544 417.078C80.9193 396.593 82.3703 143.399 177.479 73.4579Z" fill="url(#paint1_linear)" fill-opacity="0.6"/>
<path d="M28 159L335.5 91.5L363 106L220 354.5C181.5 409 -36.4997 173 28 159Z" fill="url(#paint2_linear)"/>
<path d="M387.026 371.154C390.671 373.205 390.675 374.862 391.69 377.707C392.704 380.552 390.134 385.23 390.245 389.087C390.337 392.15 392.588 394.734 394.029 397.502C395.698 400.957 396.103 404.8 395.191 408.541C394.28 412.282 392.094 415.751 388.912 418.508C388.24 419.134 387.415 419.626 386.501 419.947C385.735 420.124 384.941 420.168 384.168 420.075C383.395 419.982 382.658 419.754 382.004 419.406C379.995 418.489 378.372 417.075 377.34 415.34C376.447 413.62 375.851 411.79 375.571 409.905L374.082 402.682C372.528 395.143 371 387.357 372.242 379.604C372.647 377.059 373.261 371.255 376.558 370.493C379.854 369.731 383.381 369.103 387.026 371.154Z" fill="#7E88AC"/>
<path d="M379.354 389.042C373.86 388.822 363.135 383.271 359.493 382.497C331.656 376.582 330.565 329.591 350.586 346.492C370.608 363.394 381.17 372.441 384.43 377.172C387.69 381.902 384.849 389.263 379.354 389.042Z" fill="url(#paint3_linear)"/>
<path d="M376.3 230.116C365.602 225.975 311.25 222.4 307.978 240.881C304.707 259.361 303.382 278.223 312.574 294.635C321.766 311.046 375.483 306.685 385.796 294.635C396.109 282.585 386.998 234.257 376.3 230.116Z" fill="#FDFDFE"/>
<path d="M337.987 272.387C337.987 272.387 304.277 240.007 305.678 274.411C307.079 308.814 323.481 338.182 329.213 352.548C350.954 382.446 356.257 353.46 352.926 315.117C349.595 276.774 337.987 272.387 337.987 272.387Z" fill="url(#paint4_linear)"/>
<path d="M361.898 359.916C358.224 349.945 332.494 324.476 334.977 361.526C337.821 374.945 337.915 393.41 339.008 413.245C340.115 433.349 342.008 458.015 342.008 458.015L352.69 449.754C351.979 439.141 365.629 393.881 365.241 387.879C365.077 376.47 365.571 369.887 361.898 359.916Z" fill="url(#paint5_linear)"/>
<path d="M388.778 267.413C381.396 237.75 346.4 270.319 346.4 270.319C336.015 306.869 343.685 308.819 336.042 345.658C328.398 382.497 362.546 362.013 362.546 362.013C362.546 362.013 396.159 297.077 388.778 267.413Z" fill="url(#paint6_linear)"/>
<path fill-rule="evenodd" clip-rule="evenodd" d="M309.243 237.969C318.378 227.681 366.245 226.036 376.409 230.102C385.543 233.756 393.605 271.252 388.761 288.597C387.351 298.088 384.531 308.452 381.265 318.327C375.821 312.764 378.228 302.972 380.415 294.074C382.545 285.406 384.467 277.586 378.72 275.351C373.392 273.279 373.152 269.27 372.929 265.541C372.595 259.965 372.299 255.017 355.085 258.116C335.489 261.643 318.567 250.158 309.243 237.969Z" fill="#C6D2FF" fill-opacity="0.34"/>
<path d="M353.454 453.716C353.348 453.077 352.667 452.721 352.076 452.987L324.037 465.572C323.71 465.719 323.487 466.029 323.451 466.386L322.884 472.101C322.83 472.65 323.222 473.139 323.771 473.194C327.548 473.568 341.198 474.923 347.334 475.531C354.494 476.242 354.091 469.894 354.504 465.731C354.823 462.516 353.894 456.356 353.454 453.716Z" fill="white"/>
<path d="M353.617 453.841C353.159 458.633 353.749 463.064 353.429 466.15C353.11 469.236 350.661 473.233 347.926 473.057C347.926 473.057 336.062 471.88 326.2 470.719C320.487 470.24 322.426 461.63 330.208 462.113C336.828 456.964 337.843 452.639 338.133 449.715C338.423 446.791 340.49 444.501 341.983 443.424C343.477 442.348 345.934 441.754 348.571 442.241C351.208 442.727 349.964 445.679 350.685 446.956C351.407 448.233 352.818 448.907 353.496 449.863C354.396 451.407 353.79 452.092 353.617 453.841Z" fill="#7E88AC"/>
<g opacity="0.85">
<path d="M409.968 62.3246C396.482 38.4286 368.778 36.8151 358.355 44.7261C347.932 52.6372 332.545 92.9915 360.116 99.1216C387.687 105.252 383.62 122.089 409.479 144.801C435.339 167.514 501.325 152.938 487.581 107.631C473.838 62.3247 428.002 94.2776 409.968 62.3246Z" fill="url(#paint7_linear)"/>
<path fill-rule="evenodd" clip-rule="evenodd" d="M352.788 116.789C352.788 116.789 327.914 121.473 315.229 130.807C308.904 134.664 301.377 148.902 295.718 159.608L295.718 159.608C292.71 165.298 290.23 169.99 288.737 171.596C287.662 172.753 284.984 174.288 282.106 175.937C273.172 181.056 262.31 187.281 291.453 186.749C299.245 186.243 306.619 179.136 313.007 170.16C314.806 176.243 316.358 182.706 316.5 189.5C316.948 210.881 315.4 217.26 308.999 237.683C338.422 262.554 366.839 249.712 377.956 244.688C379.481 243.999 380.681 243.456 381.513 243.179C384.888 242.054 383.883 238.906 382.073 233.235C380.185 227.322 377.423 218.666 377.837 206.701C378.213 195.857 382.621 187.216 386.985 178.662C387.445 177.761 387.904 176.861 388.358 175.96C392.618 180.955 396.502 186.323 398.597 193.869C404.051 213.514 416.751 213.888 420.533 201.471C424.316 189.055 412.763 164.736 399.552 139.209C394.696 133.502 389.511 130.035 384.861 128.679C372.13 119.142 352.788 116.789 352.788 116.789Z" fill="url(#paint8_linear)"/>
<path fill-rule="evenodd" clip-rule="evenodd" d="M310.122 234C310.993 233.367 312.25 232.39 314 231C320.381 225.933 319.365 220.795 318.33 215.56C316.608 206.849 314.832 197.87 347 188.5C310.5 193.5 317.5 157 317.5 157C313.503 163.951 313.613 169.573 314.367 175.336C314.371 175.288 314.375 175.24 314.379 175.192C314.941 177.951 315.354 180.84 315.512 183.877C315.691 185.813 315.771 187.831 315.65 189.974C315.842 204.162 315.319 213.524 312.372 225.696C312.272 226.458 312.064 227.236 311.794 228.001C311.297 229.916 310.742 231.906 310.122 234Z" fill="#35BB85" fill-opacity="0.34"/>
<path fill-rule="evenodd" clip-rule="evenodd" d="M310.907 231.281C310.336 233.312 309.702 235.437 308.998 237.683C338.421 262.554 366.839 249.712 377.955 244.688C379.481 243.999 380.68 243.456 381.512 243.179C384.887 242.054 383.882 238.906 382.072 233.235C380.185 227.322 377.422 218.666 377.837 206.701C378.213 195.857 382.621 187.216 386.985 178.662C387.444 177.761 387.903 176.861 388.357 175.96C388.362 175.965 388.367 175.971 388.371 175.976C386.477 172.102 385.533 169.643 385.533 169.643C383.543 184.572 376.81 187.863 369.444 191.463C368.306 192.019 367.153 192.582 366 193.197C362.38 195.128 362.83 198.931 363.329 203.141C364.017 208.953 364.797 215.542 355.085 219.05C346.755 222.059 344.771 226.76 342.948 231.081C341.106 235.448 339.427 239.427 331.53 240.881C324.794 242.121 317.814 236.701 310.907 231.281ZM413.295 209.719C407.318 204.521 402.314 198.523 398.276 192.776C398.387 193.135 398.494 193.5 398.596 193.869C401.989 206.089 408.186 210.853 413.295 209.719Z" fill="#3DB183" fill-opacity="0.59"/>
<path fill-rule="evenodd" clip-rule="evenodd" d="M334.651 121.597C333.527 121.972 332.389 122.368 331.248 122.786C328.426 124.41 327.368 127.473 329.807 132.874C339.574 152.982 383.236 147.237 382.661 139.194C382.367 135.074 386.595 135.326 390.326 135.547C392.574 135.681 394.641 135.804 395.431 134.954C391.846 131.732 388.214 129.657 384.862 128.679C383.534 127.684 382.135 126.768 380.693 125.924C374.507 124.844 367.671 124.324 362.856 123.958C360.536 123.781 358.685 123.641 357.603 123.49C356.941 123.398 355.971 123.219 354.782 123C349.723 122.067 340.706 120.404 334.651 121.597Z" fill="#3DB183" fill-opacity="0.58"/>
<path d="M355.07 216.928C354.371 216.081 353.109 215.942 352.242 216.617L341.222 225.199C340.345 225.881 340.207 227.136 340.914 227.993L359.598 250.638C360.319 251.513 361.635 251.628 362.496 250.892L373.108 241.823C373.925 241.125 374.03 239.916 373.346 239.086L355.07 216.928Z" fill="#4E5A85"/>
<rect width="6.18945" height="2.7434" rx="1.3717" transform="matrix(-0.776944 0.62957 0.645651 0.763632 353.512 217.49)" fill="white"/>
<path d="M365.169 240.992C358.096 241.299 345.389 232.875 354.455 225.371C362.819 217.838 376.764 227.529 377.834 222.665C378.905 217.801 391.548 219.427 389.476 228.066C381.357 232.576 372.242 240.684 365.169 240.992Z" fill="url(#paint9_linear)"/>
<path d="M419.697 204.338C422.674 192.817 399.251 191.073 399.251 191.073C399.251 191.073 394.311 205.281 390.358 210.495C386.406 215.709 374.045 222.497 376.343 223.646C376.343 223.646 382.662 231.114 382.662 232.263C382.662 233.412 416.721 215.858 419.697 204.338Z" fill="#29BA80"/>
<path fill-rule="evenodd" clip-rule="evenodd" d="M378.296 220.702C376.518 222.164 375.543 223.246 376.342 223.646C376.342 223.646 382.662 231.115 382.662 232.264C382.662 232.476 383.831 232.047 385.755 231.134C384.086 225.449 381.481 223.313 378.453 220.831C378.401 220.788 378.349 220.745 378.296 220.702Z" fill="#26976A"/>
<path d="M334.299 118.891C352.111 113.607 353.85 113.406 367.105 113.104C380.36 112.802 386.819 121.112 382.087 132.874C377.355 144.637 345.225 151.765 330.883 131.744C326.375 125.452 330.158 120.12 334.299 118.891Z" fill="url(#paint10_linear)"/>
<path d="M347.393 114.921C337.346 115.85 328.658 126.555 349.915 129.427C362.554 129.427 368.074 127.23 373.519 122.739C378.963 118.248 373.488 109.209 347.393 114.921Z" fill="#3DB183"/>
<path d="M363.137 102.942L345.872 101.91L338.623 124.117C338.347 124.96 338.667 125.892 339.408 126.38C353.796 135.86 354.94 129.114 365.706 127.557C366.903 127.384 367.77 126.268 367.534 125.082L363.137 102.942Z" fill="url(#paint11_linear)"/>
<path fill-rule="evenodd" clip-rule="evenodd" d="M341.897 114.099C344.817 117.398 348.063 119.403 351.278 119.692C355.443 120.068 360.592 118.372 365.394 114.309L363.483 102.963L345.493 101.887L341.897 114.099Z" fill="#FC8780"/>
<path d="M332.55 82.9593C332.513 96.8379 353.786 104.618 353.786 104.618C353.786 104.618 381.015 102.971 385.97 89.9786C390.926 76.986 390.23 54.8772 357.234 53.6653C338.094 54.0937 332.586 69.0807 332.55 82.9593Z" fill="url(#paint12_linear)"/>
<path d="M340.256 96.2603C339.266 99.2331 336.72 99.7615 333.67 98.8413C331.607 98.2189 330.493 94.1232 330.707 90.8446C331.433 87.7293 333.476 88.291 336.526 89.2113C339.576 90.1315 341.246 93.2875 340.256 96.2603Z" fill="#FFB9A0"/>
<path d="M334.857 91.9547C334.82 105.93 342.009 118.143 350.576 117.499C359.143 116.855 373.451 106.044 373.488 92.069C373.525 78.0936 363.781 82.5226 350.681 77.7258C337.58 72.9291 334.893 77.9793 334.857 91.9547Z" fill="url(#paint13_linear)"/>
<path d="M366.754 98.6068C366.813 101.725 369.094 102.923 372.294 102.87C374.457 102.834 376.752 99.2108 377.529 96.0102C377.767 92.8273 375.641 92.8107 372.441 92.8641C369.242 92.9174 366.696 95.4886 366.754 98.6068Z" fill="#FFA293"/>
<path d="M290.352 192.835C266 199 276.143 190.092 276 188C275.857 185.907 266.534 186.158 279.5 176C292.466 165.842 314.703 186.67 290.352 192.835Z" fill="#3DB183"/>
<path d="M231.142 195.883C239.576 192.729 242.43 198.89 251.625 194.256C265.353 187.336 273.5 180.691 280 178.5C286.5 176.309 299 185.5 287.943 191.998C276.885 198.496 265.119 198.924 251.563 204.938C248.059 206.493 246.137 208.278 238.867 211.923C231.596 215.569 206.894 204.951 231.142 195.883Z" fill="url(#paint14_linear)"/>
</g>
<g filter="url(#filter0_f)">
<circle cx="168.5" cy="41.5" r="21.5" fill="#6FCF97" fill-opacity="0.48"/>
</g>
<path d="M91.896 44.8V56H90.328V46.192H85.368L85.256 49.472C85.2027 51.0187 85.0747 52.272 84.872 53.232C84.68 54.192 84.3707 54.9173 83.944 55.408C83.5173 55.888 82.9413 56.128 82.216 56.128C81.8853 56.128 81.5493 56.0853 81.208 56L81.32 54.576C81.4907 54.6187 81.6613 54.64 81.832 54.64C82.2907 54.64 82.6587 54.4587 82.936 54.096C83.2133 53.7227 83.4213 53.168 83.56 52.432C83.6987 51.696 83.7893 50.7253 83.832 49.52L84.008 44.8H91.896ZM98.7606 56.096C97.918 56.096 97.1606 55.9093 96.4886 55.536C95.8166 55.1627 95.2886 54.6507 94.9046 54C94.5313 53.3387 94.3446 52.592 94.3446 51.76C94.3446 50.928 94.5313 50.1867 94.9046 49.536C95.2886 48.8747 95.8166 48.3627 96.4886 48C97.1606 47.6267 97.918 47.44 98.7606 47.44C99.6033 47.44 100.355 47.6267 101.017 48C101.689 48.3627 102.211 48.8747 102.585 49.536C102.969 50.1867 103.161 50.928 103.161 51.76C103.161 52.592 102.969 53.3387 102.585 54C102.211 54.6507 101.689 55.1627 101.017 55.536C100.355 55.9093 99.6033 56.096 98.7606 56.096ZM98.7606 54.752C99.3046 54.752 99.79 54.6293 100.217 54.384C100.654 54.128 100.995 53.776 101.241 53.328C101.486 52.8693 101.609 52.3467 101.609 51.76C101.609 51.1733 101.486 50.656 101.241 50.208C100.995 49.7493 100.654 49.3973 100.217 49.152C99.79 48.9067 99.3046 48.784 98.7606 48.784C98.2166 48.784 97.726 48.9067 97.2886 49.152C96.862 49.3973 96.5206 49.7493 96.2646 50.208C96.0193 50.656 95.8966 51.1733 95.8966 51.76C95.8966 52.3467 96.0193 52.8693 96.2646 53.328C96.5206 53.776 96.862 54.128 97.2886 54.384C97.726 54.6293 98.2166 54.752 98.7606 54.752ZM111.619 48.864H106.915V56H105.379V47.52H111.619V48.864ZM116.448 56.096C115.605 56.096 114.848 55.9093 114.176 55.536C113.504 55.1627 112.976 54.6507 112.592 54C112.219 53.3387 112.032 52.592 112.032 51.76C112.032 50.928 112.219 50.1867 112.592 49.536C112.976 48.8747 113.504 48.3627 114.176 48C114.848 47.6267 115.605 47.44 116.448 47.44C117.291 47.44 118.043 47.6267 118.704 48C119.376 48.3627 119.899 48.8747 120.272 49.536C120.656 50.1867 120.848 50.928 120.848 51.76C120.848 52.592 120.656 53.3387 120.272 54C119.899 54.6507 119.376 55.1627 118.704 55.536C118.043 55.9093 117.291 56.096 116.448 56.096ZM116.448 54.752C116.992 54.752 117.477 54.6293 117.904 54.384C118.341 54.128 118.683 53.776 118.928 53.328C119.173 52.8693 119.296 52.3467 119.296 51.76C119.296 51.1733 119.173 50.656 118.928 50.208C118.683 49.7493 118.341 49.3973 117.904 49.152C117.477 48.9067 116.992 48.784 116.448 48.784C115.904 48.784 115.413 48.9067 114.976 49.152C114.549 49.3973 114.208 49.7493 113.952 50.208C113.707 50.656 113.584 51.1733 113.584 51.76C113.584 52.3467 113.707 52.8693 113.952 53.328C114.208 53.776 114.549 54.128 114.976 54.384C115.413 54.6293 115.904 54.752 116.448 54.752ZM129.074 48.864H125.97V56H124.434V48.864H121.33V47.52H129.074V48.864ZM130.644 47.52H132.18V53.696L137.38 47.52H138.772V56H137.236V49.824L132.052 56H130.644V47.52ZM149.61 47.52V56H148.074V48.864H143.29V56H141.754V47.52H149.61ZM86.648 68.072H84.312V73H82.744V61.8H84.312V66.664H86.68L90.2 61.8H91.912L87.912 67.224L92.104 73H90.28L86.648 68.072ZM97.0106 73.096C96.168 73.096 95.4106 72.9093 94.7386 72.536C94.0666 72.1627 93.5386 71.6507 93.1546 71C92.7813 70.3387 92.5946 69.592 92.5946 68.76C92.5946 67.928 92.7813 67.1867 93.1546 66.536C93.5386 65.8747 94.0666 65.3627 94.7386 65C95.4106 64.6267 96.168 64.44 97.0106 64.44C97.8533 64.44 98.6053 64.6267 99.2666 65C99.9386 65.3627 100.461 65.8747 100.835 66.536C101.219 67.1867 101.411 67.928 101.411 68.76C101.411 69.592 101.219 70.3387 100.835 71C100.461 71.6507 99.9386 72.1627 99.2666 72.536C98.6053 72.9093 97.8533 73.096 97.0106 73.096ZM97.0106 71.752C97.5546 71.752 98.04 71.6293 98.4666 71.384C98.904 71.128 99.2453 70.776 99.4906 70.328C99.736 69.8693 99.8586 69.3467 99.8586 68.76C99.8586 68.1733 99.736 67.656 99.4906 67.208C99.2453 66.7493 98.904 66.3973 98.4666 66.152C98.04 65.9067 97.5546 65.784 97.0106 65.784C96.4666 65.784 95.976 65.9067 95.5386 66.152C95.112 66.3973 94.7706 66.7493 94.5146 67.208C94.2693 67.656 94.1466 68.1733 94.1466 68.76C94.1466 69.3467 94.2693 69.8693 94.5146 70.328C94.7706 70.776 95.112 71.128 95.5386 71.384C95.976 71.6293 96.4666 71.752 97.0106 71.752ZM103.629 64.52H105.165V68.12H109.997V64.52H111.533V73H109.997V69.448H105.165V73H103.629V64.52ZM117.815 69.416H116.055V73H114.519V64.52H116.055V68.104H117.847L120.599 64.52H122.247L119.031 68.6L122.471 73H120.663L117.815 69.416ZM131.165 64.52L127.053 73.848C126.691 74.712 126.264 75.32 125.773 75.672C125.293 76.024 124.712 76.2 124.029 76.2C123.613 76.2 123.208 76.1307 122.813 75.992C122.429 75.864 122.109 75.672 121.853 75.416L122.509 74.264C122.947 74.68 123.453 74.888 124.029 74.888C124.403 74.888 124.712 74.7867 124.957 74.584C125.213 74.392 125.443 74.056 125.645 73.576L125.917 72.984L122.173 64.52H123.773L126.733 71.304L129.661 64.52H131.165ZM137.234 64.44C138.055 64.44 138.791 64.6213 139.442 64.984C140.093 65.3467 140.599 65.8533 140.962 66.504C141.335 67.1547 141.522 67.9067 141.522 68.76C141.522 69.6133 141.335 70.3707 140.962 71.032C140.599 71.6827 140.093 72.1893 139.442 72.552C138.791 72.9147 138.055 73.096 137.234 73.096C136.626 73.096 136.066 72.9787 135.554 72.744C135.053 72.5093 134.626 72.168 134.274 71.72V76.104H132.738V64.52H134.21V65.864C134.551 65.3947 134.983 65.0427 135.506 64.808C136.029 64.5627 136.605 64.44 137.234 64.44ZM137.106 71.752C137.65 71.752 138.135 71.6293 138.562 71.384C138.999 71.128 139.341 70.776 139.586 70.328C139.842 69.8693 139.97 69.3467 139.97 68.76C139.97 68.1733 139.842 67.656 139.586 67.208C139.341 66.7493 138.999 66.3973 138.562 66.152C138.135 65.9067 137.65 65.784 137.106 65.784C136.573 65.784 136.087 65.912 135.65 66.168C135.223 66.4133 134.882 66.76 134.626 67.208C134.381 67.656 134.258 68.1733 134.258 68.76C134.258 69.3467 134.381 69.8693 134.626 70.328C134.871 70.776 135.213 71.128 135.65 71.384C136.087 71.6293 136.573 71.752 137.106 71.752ZM151.418 68.808C151.418 68.9253 151.407 69.08 151.386 69.272H144.506C144.602 70.0187 144.927 70.6213 145.482 71.08C146.047 71.528 146.746 71.752 147.578 71.752C148.591 71.752 149.407 71.4107 150.026 70.728L150.874 71.72C150.49 72.168 150.01 72.5093 149.434 72.744C148.868 72.9787 148.234 73.096 147.53 73.096C146.634 73.096 145.839 72.9147 145.146 72.552C144.452 72.1787 143.914 71.6613 143.53 71C143.156 70.3387 142.97 69.592 142.97 68.76C142.97 67.9387 143.151 67.1973 143.514 66.536C143.887 65.8747 144.394 65.3627 145.034 65C145.684 64.6267 146.415 64.44 147.226 64.44C148.036 64.44 148.756 64.6267 149.386 65C150.026 65.3627 150.522 65.8747 150.874 66.536C151.236 67.1973 151.418 67.9547 151.418 68.808ZM147.226 65.736C146.49 65.736 145.871 65.96 145.37 66.408C144.879 66.856 144.591 67.4427 144.506 68.168H149.946C149.86 67.4533 149.567 66.872 149.066 66.424C148.575 65.9653 147.962 65.736 147.226 65.736ZM153.801 64.52H155.337V68.12H160.169V64.52H161.705V73H160.169V69.448H155.337V73H153.801V64.52ZM171.011 65.864H167.907V73H166.371V65.864H163.267V64.52H171.011V65.864ZM175.839 73.096C174.996 73.096 174.239 72.9093 173.567 72.536C172.895 72.1627 172.367 71.6507 171.983 71C171.609 70.3387 171.423 69.592 171.423 68.76C171.423 67.928 171.609 67.1867 171.983 66.536C172.367 65.8747 172.895 65.3627 173.567 65C174.239 64.6267 174.996 64.44 175.839 64.44C176.681 64.44 177.433 64.6267 178.095 65C178.767 65.3627 179.289 65.8747 179.663 66.536C180.047 67.1867 180.239 67.928 180.239 68.76C180.239 69.592 180.047 70.3387 179.663 71C179.289 71.6507 178.767 72.1627 178.095 72.536C177.433 72.9093 176.681 73.096 175.839 73.096ZM175.839 71.752C176.383 71.752 176.868 71.6293 177.295 71.384C177.732 71.128 178.073 70.776 178.319 70.328C178.564 69.8693 178.687 69.3467 178.687 68.76C178.687 68.1733 178.564 67.656 178.319 67.208C178.073 66.7493 177.732 66.3973 177.295 66.152C176.868 65.9067 176.383 65.784 175.839 65.784C175.295 65.784 174.804 65.9067 174.367 66.152C173.94 66.3973 173.599 66.7493 173.343 67.208C173.097 67.656 172.975 68.1733 172.975 68.76C172.975 69.3467 173.097 69.8693 173.343 70.328C173.599 70.776 173.94 71.128 174.367 71.384C174.804 71.6293 175.295 71.752 175.839 71.752ZM188.233 68.6C189.331 68.8773 189.881 69.5653 189.881 70.664C189.881 71.4107 189.598 71.9867 189.033 72.392C188.478 72.7973 187.646 73 186.537 73H182.457V64.52H186.393C187.395 64.52 188.179 64.712 188.745 65.096C189.31 65.4693 189.593 66.0027 189.593 66.696C189.593 67.144 189.47 67.5333 189.225 67.864C188.99 68.184 188.659 68.4293 188.233 68.6ZM183.961 68.168H186.265C186.851 68.168 187.294 68.0613 187.593 67.848C187.902 67.6347 188.057 67.3253 188.057 66.92C188.057 66.1093 187.459 65.704 186.265 65.704H183.961V68.168ZM186.425 71.816C187.065 71.816 187.545 71.7147 187.865 71.512C188.185 71.3093 188.345 70.9947 188.345 70.568C188.345 70.1307 188.195 69.8053 187.897 69.592C187.609 69.3787 187.15 69.272 186.521 69.272H183.961V71.816H186.425Z" fill="#4E5A85"/>
<path d="M478.392 320.8V332H476.824V322.192H470.328V332H468.744V320.8H478.392ZM488.909 323.52V332H487.373V324.864H483.725L483.629 326.752C483.575 327.893 483.474 328.848 483.325 329.616C483.175 330.373 482.93 330.981 482.589 331.44C482.247 331.899 481.773 332.128 481.165 332.128C480.887 332.128 480.573 332.08 480.221 331.984L480.317 330.688C480.455 330.72 480.583 330.736 480.701 330.736C481.127 330.736 481.447 330.549 481.661 330.176C481.874 329.803 482.013 329.36 482.077 328.848C482.141 328.336 482.199 327.605 482.253 326.656L482.397 323.52H488.909ZM495.511 332.096C494.668 332.096 493.911 331.909 493.239 331.536C492.567 331.163 492.039 330.651 491.655 330C491.281 329.339 491.095 328.592 491.095 327.76C491.095 326.928 491.281 326.187 491.655 325.536C492.039 324.875 492.567 324.363 493.239 324C493.911 323.627 494.668 323.44 495.511 323.44C496.353 323.44 497.105 323.627 497.767 324C498.439 324.363 498.961 324.875 499.335 325.536C499.719 326.187 499.911 326.928 499.911 327.76C499.911 328.592 499.719 329.339 499.335 330C498.961 330.651 498.439 331.163 497.767 331.536C497.105 331.909 496.353 332.096 495.511 332.096ZM495.511 330.752C496.055 330.752 496.54 330.629 496.967 330.384C497.404 330.128 497.745 329.776 497.991 329.328C498.236 328.869 498.359 328.347 498.359 327.76C498.359 327.173 498.236 326.656 497.991 326.208C497.745 325.749 497.404 325.397 496.967 325.152C496.54 324.907 496.055 324.784 495.511 324.784C494.967 324.784 494.476 324.907 494.039 325.152C493.612 325.397 493.271 325.749 493.015 326.208C492.769 326.656 492.647 327.173 492.647 327.76C492.647 328.347 492.769 328.869 493.015 329.328C493.271 329.776 493.612 330.128 494.039 330.384C494.476 330.629 494.967 330.752 495.511 330.752ZM507.143 332L504.695 328.752L502.215 332H500.503L503.847 327.664L500.663 323.52H502.375L504.711 326.576L507.031 323.52H508.711L505.511 327.664L508.887 332H507.143ZM513.854 332.096C513.012 332.096 512.254 331.909 511.582 331.536C510.91 331.163 510.382 330.651 509.998 330C509.625 329.339 509.438 328.592 509.438 327.76C509.438 326.928 509.625 326.187 509.998 325.536C510.382 324.875 510.91 324.363 511.582 324C512.254 323.627 513.012 323.44 513.854 323.44C514.697 323.44 515.449 323.627 516.11 324C516.782 324.363 517.305 324.875 517.678 325.536C518.062 326.187 518.254 326.928 518.254 327.76C518.254 328.592 518.062 329.339 517.678 330C517.305 330.651 516.782 331.163 516.11 331.536C515.449 331.909 514.697 332.096 513.854 332.096ZM513.854 330.752C514.398 330.752 514.884 330.629 515.31 330.384C515.748 330.128 516.089 329.776 516.334 329.328C516.58 328.869 516.702 328.347 516.702 327.76C516.702 327.173 516.58 326.656 516.334 326.208C516.089 325.749 515.748 325.397 515.31 325.152C514.884 324.907 514.398 324.784 513.854 324.784C513.31 324.784 512.82 324.907 512.382 325.152C511.956 325.397 511.614 325.749 511.358 326.208C511.113 326.656 510.99 327.173 510.99 327.76C510.99 328.347 511.113 328.869 511.358 329.328C511.614 329.776 511.956 330.128 512.382 330.384C512.82 330.629 513.31 330.752 513.854 330.752ZM520.472 323.52H522.008V329.696L527.208 323.52H528.6V332H527.064V325.824L521.88 332H520.472V323.52ZM524.44 322.416C523.651 322.416 523.038 322.229 522.6 321.856C522.163 321.472 521.939 320.923 521.928 320.208H522.968C522.979 320.603 523.112 320.923 523.368 321.168C523.635 321.403 523.987 321.52 524.424 321.52C524.862 321.52 525.214 321.403 525.48 321.168C525.747 320.923 525.886 320.603 525.896 320.208H526.968C526.958 320.923 526.728 321.472 526.28 321.856C525.832 322.229 525.219 322.416 524.44 322.416ZM543.159 323.52V332H541.623V324.864H537.975L537.879 326.752C537.825 327.893 537.724 328.848 537.575 329.616C537.425 330.373 537.18 330.981 536.839 331.44C536.497 331.899 536.023 332.128 535.415 332.128C535.137 332.128 534.823 332.08 534.471 331.984L534.567 330.688C534.705 330.72 534.833 330.736 534.951 330.736C535.377 330.736 535.697 330.549 535.911 330.176C536.124 329.803 536.263 329.36 536.327 328.848C536.391 328.336 536.449 327.605 536.503 326.656L536.647 323.52H543.159ZM549.761 332.096C548.918 332.096 548.161 331.909 547.489 331.536C546.817 331.163 546.289 330.651 545.905 330C545.531 329.339 545.345 328.592 545.345 327.76C545.345 326.928 545.531 326.187 545.905 325.536C546.289 324.875 546.817 324.363 547.489 324C548.161 323.627 548.918 323.44 549.761 323.44C550.603 323.44 551.355 323.627 552.017 324C552.689 324.363 553.211 324.875 553.585 325.536C553.969 326.187 554.161 326.928 554.161 327.76C554.161 328.592 553.969 329.339 553.585 330C553.211 330.651 552.689 331.163 552.017 331.536C551.355 331.909 550.603 332.096 549.761 332.096ZM549.761 330.752C550.305 330.752 550.79 330.629 551.217 330.384C551.654 330.128 551.995 329.776 552.241 329.328C552.486 328.869 552.609 328.347 552.609 327.76C552.609 327.173 552.486 326.656 552.241 326.208C551.995 325.749 551.654 325.397 551.217 325.152C550.79 324.907 550.305 324.784 549.761 324.784C549.217 324.784 548.726 324.907 548.289 325.152C547.862 325.397 547.521 325.749 547.265 326.208C547.019 326.656 546.897 327.173 546.897 327.76C546.897 328.347 547.019 328.869 547.265 329.328C547.521 329.776 547.862 330.128 548.289 330.384C548.726 330.629 549.217 330.752 549.761 330.752ZM562.619 324.864H557.915V332H556.379V323.52H562.619V324.864ZM567.448 332.096C566.605 332.096 565.848 331.909 565.176 331.536C564.504 331.163 563.976 330.651 563.592 330C563.219 329.339 563.032 328.592 563.032 327.76C563.032 326.928 563.219 326.187 563.592 325.536C563.976 324.875 564.504 324.363 565.176 324C565.848 323.627 566.605 323.44 567.448 323.44C568.291 323.44 569.043 323.627 569.704 324C570.376 324.363 570.899 324.875 571.272 325.536C571.656 326.187 571.848 326.928 571.848 327.76C571.848 328.592 571.656 329.339 571.272 330C570.899 330.651 570.376 331.163 569.704 331.536C569.043 331.909 568.291 332.096 567.448 332.096ZM567.448 330.752C567.992 330.752 568.477 330.629 568.904 330.384C569.341 330.128 569.683 329.776 569.928 329.328C570.173 328.869 570.296 328.347 570.296 327.76C570.296 327.173 570.173 326.656 569.928 326.208C569.683 325.749 569.341 325.397 568.904 325.152C568.477 324.907 567.992 324.784 567.448 324.784C566.904 324.784 566.413 324.907 565.976 325.152C565.549 325.397 565.208 325.749 564.952 326.208C564.707 326.656 564.584 327.173 564.584 327.76C564.584 328.347 564.707 328.869 564.952 329.328C565.208 329.776 565.549 330.128 565.976 330.384C566.413 330.629 566.904 330.752 567.448 330.752ZM580.074 324.864H576.97V332H575.434V324.864H572.33V323.52H580.074V324.864ZM581.644 323.52H583.18V329.696L588.38 323.52H589.772V332H588.236V325.824L583.052 332H581.644V323.52ZM600.61 323.52V332H599.074V324.864H594.29V332H592.754V323.52H600.61Z" fill="#4E5A85"/>
<path d="M546.376 197.8V209H544.776V204.008H538.344V209H536.744V197.8H538.344V202.616H544.776V197.8H546.376ZM557.277 204.808C557.277 204.925 557.266 205.08 557.245 205.272H550.365C550.461 206.019 550.786 206.621 551.341 207.08C551.906 207.528 552.605 207.752 553.437 207.752C554.45 207.752 555.266 207.411 555.885 206.728L556.733 207.72C556.349 208.168 555.869 208.509 555.293 208.744C554.728 208.979 554.093 209.096 553.389 209.096C552.493 209.096 551.698 208.915 551.005 208.552C550.312 208.179 549.773 207.661 549.389 207C549.016 206.339 548.829 205.592 548.829 204.76C548.829 203.939 549.01 203.197 549.373 202.536C549.746 201.875 550.253 201.363 550.893 201C551.544 200.627 552.274 200.44 553.085 200.44C553.896 200.44 554.616 200.627 555.245 201C555.885 201.363 556.381 201.875 556.733 202.536C557.096 203.197 557.277 203.955 557.277 204.808ZM553.085 201.736C552.349 201.736 551.73 201.96 551.229 202.408C550.738 202.856 550.45 203.443 550.365 204.168H555.805C555.72 203.453 555.426 202.872 554.925 202.424C554.434 201.965 553.821 201.736 553.085 201.736ZM564.064 204.584C564.63 204.733 565.067 204.973 565.376 205.304C565.686 205.635 565.84 206.045 565.84 206.536C565.84 207.037 565.67 207.485 565.328 207.88C564.987 208.264 564.512 208.568 563.904 208.792C563.307 209.005 562.635 209.112 561.888 209.112C561.259 209.112 560.64 209.032 560.032 208.872C559.435 208.701 558.902 208.461 558.432 208.152L558.896 206.984C559.302 207.24 559.766 207.443 560.288 207.592C560.811 207.731 561.339 207.8 561.872 207.8C562.598 207.8 563.174 207.677 563.6 207.432C564.038 207.176 564.256 206.835 564.256 206.408C564.256 206.013 564.08 205.709 563.728 205.496C563.387 205.283 562.902 205.176 562.272 205.176H560.72V204.072H562.16C562.736 204.072 563.19 203.971 563.52 203.768C563.851 203.565 564.016 203.288 564.016 202.936C564.016 202.552 563.819 202.253 563.424 202.04C563.04 201.827 562.518 201.72 561.856 201.72C561.014 201.72 560.123 201.939 559.184 202.376L558.768 201.192C559.803 200.669 560.886 200.408 562.016 200.408C562.699 200.408 563.312 200.504 563.856 200.696C564.4 200.888 564.827 201.16 565.136 201.512C565.446 201.864 565.6 202.264 565.6 202.712C565.6 203.128 565.462 203.501 565.184 203.832C564.907 204.163 564.534 204.413 564.064 204.584ZM571.2 200.44C572.373 200.44 573.269 200.728 573.888 201.304C574.517 201.88 574.832 202.739 574.832 203.88V209H573.376V207.88C573.12 208.275 572.752 208.579 572.272 208.792C571.802 208.995 571.242 209.096 570.592 209.096C569.642 209.096 568.88 208.867 568.304 208.408C567.738 207.949 567.456 207.347 567.456 206.6C567.456 205.853 567.728 205.256 568.272 204.808C568.816 204.349 569.68 204.12 570.864 204.12H573.296V203.816C573.296 203.155 573.104 202.648 572.72 202.296C572.336 201.944 571.77 201.768 571.024 201.768C570.522 201.768 570.032 201.853 569.552 202.024C569.072 202.184 568.666 202.403 568.336 202.68L567.696 201.528C568.133 201.176 568.656 200.909 569.264 200.728C569.872 200.536 570.517 200.44 571.2 200.44ZM570.848 207.912C571.434 207.912 571.941 207.784 572.368 207.528C572.794 207.261 573.104 206.888 573.296 206.408V205.224H570.928C569.626 205.224 568.976 205.661 568.976 206.536C568.976 206.963 569.141 207.299 569.472 207.544C569.802 207.789 570.261 207.912 570.848 207.912ZM587.373 200.52V209H585.981V202.808L582.813 208.04H582.141L579.005 202.792V209H577.597V200.52H579.181L582.509 206.248L585.933 200.52H587.373ZM598.027 204.808C598.027 204.925 598.016 205.08 597.995 205.272H591.115C591.211 206.019 591.536 206.621 592.091 207.08C592.656 207.528 593.355 207.752 594.187 207.752C595.2 207.752 596.016 207.411 596.635 206.728L597.483 207.72C597.099 208.168 596.619 208.509 596.043 208.744C595.478 208.979 594.843 209.096 594.139 209.096C593.243 209.096 592.448 208.915 591.755 208.552C591.062 208.179 590.523 207.661 590.139 207C589.766 206.339 589.579 205.592 589.579 204.76C589.579 203.939 589.76 203.197 590.123 202.536C590.496 201.875 591.003 201.363 591.643 201C592.294 200.627 593.024 200.44 593.835 200.44C594.646 200.44 595.366 200.627 595.995 201C596.635 201.363 597.131 201.875 597.483 202.536C597.846 203.197 598.027 203.955 598.027 204.808ZM593.835 201.736C593.099 201.736 592.48 201.96 591.979 202.408C591.488 202.856 591.2 203.443 591.115 204.168H596.555C596.47 203.453 596.176 202.872 595.675 202.424C595.184 201.965 594.571 201.736 593.835 201.736ZM606.371 201.864H603.266V209H601.731V201.864H598.627V200.52H606.371V201.864ZM607.941 200.52H609.477V204.12H614.309V200.52H615.845V209H614.309V205.448H609.477V209H607.941V200.52ZM622.656 203.4C623.722 203.411 624.538 203.656 625.104 204.136C625.669 204.616 625.952 205.293 625.952 206.168C625.952 207.085 625.642 207.795 625.024 208.296C624.416 208.787 623.541 209.027 622.4 209.016L618.832 209V200.52H620.368V203.384L622.656 203.4ZM627.216 200.52H628.752V209H627.216V200.52ZM622.288 207.848C622.981 207.859 623.504 207.72 623.856 207.432C624.218 207.144 624.4 206.717 624.4 206.152C624.4 205.597 624.224 205.192 623.872 204.936C623.52 204.68 622.992 204.547 622.288 204.536L620.368 204.504V207.832L622.288 207.848ZM631.738 200.52H633.274V206.696L638.474 200.52H639.866V209H638.33V202.824L633.146 209H631.738V200.52ZM635.706 199.416C634.917 199.416 634.303 199.229 633.866 198.856C633.429 198.472 633.205 197.923 633.194 197.208H634.234C634.245 197.603 634.378 197.923 634.634 198.168C634.901 198.403 635.253 198.52 635.69 198.52C636.127 198.52 636.479 198.403 636.746 198.168C637.013 197.923 637.151 197.603 637.162 197.208H638.234C638.223 197.923 637.994 198.472 637.546 198.856C637.098 199.229 636.485 199.416 635.706 199.416ZM543.768 217.52V226H542.232V218.864H538.584L538.488 220.752C538.435 221.893 538.333 222.848 538.184 223.616C538.035 224.373 537.789 224.981 537.448 225.44C537.107 225.899 536.632 226.128 536.024 226.128C535.747 226.128 535.432 226.08 535.08 225.984L535.176 224.688C535.315 224.72 535.443 224.736 535.56 224.736C535.987 224.736 536.307 224.549 536.52 224.176C536.733 223.803 536.872 223.36 536.936 222.848C537 222.336 537.059 221.605 537.112 220.656L537.256 217.52H543.768ZM550.37 226.096C549.527 226.096 548.77 225.909 548.098 225.536C547.426 225.163 546.898 224.651 546.514 224C546.141 223.339 545.954 222.592 545.954 221.76C545.954 220.928 546.141 220.187 546.514 219.536C546.898 218.875 547.426 218.363 548.098 218C548.77 217.627 549.527 217.44 550.37 217.44C551.213 217.44 551.965 217.627 552.626 218C553.298 218.363 553.821 218.875 554.194 219.536C554.578 220.187 554.77 220.928 554.77 221.76C554.77 222.592 554.578 223.339 554.194 224C553.821 224.651 553.298 225.163 552.626 225.536C551.965 225.909 551.213 226.096 550.37 226.096ZM550.37 224.752C550.914 224.752 551.399 224.629 551.826 224.384C552.263 224.128 552.605 223.776 552.85 223.328C553.095 222.869 553.218 222.347 553.218 221.76C553.218 221.173 553.095 220.656 552.85 220.208C552.605 219.749 552.263 219.397 551.826 219.152C551.399 218.907 550.914 218.784 550.37 218.784C549.826 218.784 549.335 218.907 548.898 219.152C548.471 219.397 548.13 219.749 547.874 220.208C547.629 220.656 547.506 221.173 547.506 221.76C547.506 222.347 547.629 222.869 547.874 223.328C548.13 223.776 548.471 224.128 548.898 224.384C549.335 224.629 549.826 224.752 550.37 224.752ZM563.228 218.864H558.524V226H556.988V217.52H563.228V218.864ZM568.058 226.096C567.215 226.096 566.458 225.909 565.786 225.536C565.114 225.163 564.586 224.651 564.202 224C563.828 223.339 563.642 222.592 563.642 221.76C563.642 220.928 563.828 220.187 564.202 219.536C564.586 218.875 565.114 218.363 565.786 218C566.458 217.627 567.215 217.44 568.058 217.44C568.9 217.44 569.652 217.627 570.314 218C570.986 218.363 571.508 218.875 571.882 219.536C572.266 220.187 572.458 220.928 572.458 221.76C572.458 222.592 572.266 223.339 571.882 224C571.508 224.651 570.986 225.163 570.314 225.536C569.652 225.909 568.9 226.096 568.058 226.096ZM568.058 224.752C568.602 224.752 569.087 224.629 569.514 224.384C569.951 224.128 570.292 223.776 570.538 223.328C570.783 222.869 570.906 222.347 570.906 221.76C570.906 221.173 570.783 220.656 570.538 220.208C570.292 219.749 569.951 219.397 569.514 219.152C569.087 218.907 568.602 218.784 568.058 218.784C567.514 218.784 567.023 218.907 566.586 219.152C566.159 219.397 565.818 219.749 565.562 220.208C565.316 220.656 565.194 221.173 565.194 221.76C565.194 222.347 565.316 222.869 565.562 223.328C565.818 223.776 566.159 224.128 566.586 224.384C567.023 224.629 567.514 224.752 568.058 224.752ZM580.683 218.864H577.579V226H576.043V218.864H572.939V217.52H580.683V218.864ZM582.254 217.52H583.79V223.696L588.99 217.52H590.382V226H588.846V219.824L583.662 226H582.254V217.52ZM601.219 217.52V226H599.683V218.864H594.899V226H593.363V217.52H601.219Z" fill="#4E5A85" fill-opacity="0.44"/>
<g filter="url(#filter1_f)">
<circle cx="548.5" cy="157.5" r="21.5" fill="#DAE5FF"/>
</g>
<g filter="url(#filter2_f)">
<circle cx="468" cy="275" r="27" fill="#FBAF52"/>
</g>
<path d="M40.5911 155.46L328.405 95.4672" stroke="url(#paint15_linear)" stroke-width="2" stroke-linecap="round" stroke-dasharray="8 8"/>
<path d="M40.5911 155.46L328.405 95.4672" stroke="url(#paint16_linear)" stroke-width="2" stroke-linecap="round" stroke-dasharray="8 8"/>
<path d="M216.851 361.463L325.309 171.205" stroke="url(#paint17_linear)" stroke-width="2" stroke-linecap="round" stroke-dasharray="8 8"/>
<path d="M327.746 158.292L327.579 161.191L326.261 161.115L326.359 159.424L319.835 159.048L320.278 151.361L321.684 151.442L321.311 157.921L325.187 158.144L325.561 151.665L326.977 151.747L326.604 158.226L327.746 158.292ZM334.38 156.977C334.375 157.073 334.359 157.208 334.335 157.382L329.733 157.117C329.789 157.554 329.978 157.91 330.3 158.186C330.629 158.454 331.047 158.603 331.552 158.632C332.196 158.669 332.739 158.488 333.181 158.087L333.868 158.975C333.587 159.275 333.24 159.494 332.828 159.631C332.416 159.769 331.957 159.824 331.452 159.794C330.808 159.757 330.248 159.597 329.772 159.312C329.296 159.028 328.936 158.65 328.691 158.181C328.454 157.705 328.353 157.177 328.386 156.599C328.419 156.028 328.576 155.523 328.859 155.083C329.149 154.637 329.532 154.3 330.008 154.07C330.484 153.84 331.011 153.742 331.59 153.775C332.161 153.808 332.662 153.966 333.094 154.248C333.534 154.523 333.864 154.898 334.087 155.374C334.317 155.842 334.415 156.377 334.38 156.977ZM331.526 154.874C331.087 154.848 330.706 154.959 330.383 155.204C330.069 155.443 329.866 155.777 329.775 156.205L333.102 156.397C333.068 155.969 332.909 155.614 332.624 155.334C332.339 155.053 331.973 154.899 331.526 154.874ZM341.292 154.401L340.954 160.265L339.582 160.186L339.853 155.486L337.656 155.359L337.534 156.52C337.453 157.294 337.342 157.941 337.202 158.462C337.07 158.976 336.866 159.379 336.592 159.672C336.326 159.958 335.973 160.088 335.534 160.063C335.329 160.051 335.079 159.996 334.783 159.898L334.916 158.749C335.017 158.777 335.104 158.793 335.177 158.797C335.456 158.813 335.671 158.715 335.822 158.504C335.974 158.285 336.078 158.023 336.132 157.717C336.194 157.405 336.256 156.961 336.319 156.384L336.548 154.127L341.292 154.401ZM348.461 157.789C348.456 157.884 348.441 158.019 348.416 158.194L343.814 157.929C343.87 158.365 344.059 158.722 344.381 158.997C344.711 159.266 345.128 159.415 345.633 159.444C346.277 159.481 346.821 159.299 347.262 158.899L347.949 159.787C347.668 160.086 347.321 160.305 346.909 160.443C346.497 160.581 346.038 160.635 345.533 160.606C344.889 160.569 344.329 160.408 343.853 160.124C343.377 159.839 343.017 159.462 342.772 158.993C342.535 158.516 342.434 157.989 342.467 157.41C342.5 156.839 342.658 156.334 342.94 155.895C343.23 155.449 343.613 155.111 344.089 154.882C344.565 154.652 345.092 154.554 345.671 154.587C346.242 154.62 346.743 154.777 347.175 155.059C347.615 155.335 347.946 155.71 348.168 156.185C348.398 156.654 348.496 157.189 348.461 157.789ZM345.607 155.685C345.168 155.66 344.787 155.77 344.465 156.016C344.15 156.255 343.947 156.589 343.856 157.017L347.183 157.209C347.149 156.781 346.99 156.426 346.705 156.145C346.42 155.864 346.054 155.711 345.607 155.685ZM354.221 157.967C354.934 158.228 355.269 158.718 355.228 159.435C355.197 159.962 354.976 160.357 354.564 160.62C354.152 160.883 353.559 160.992 352.782 160.947L349.795 160.775L350.133 154.91L353 155.076C353.717 155.117 354.27 155.281 354.657 155.568C355.045 155.855 355.224 156.24 355.197 156.723C355.179 157.023 355.084 157.278 354.91 157.489C354.744 157.699 354.514 157.859 354.221 157.967ZM351.299 157.435L352.738 157.518C353.448 157.559 353.817 157.334 353.845 156.843C353.873 156.367 353.531 156.109 352.821 156.068L351.383 155.985L351.299 157.435ZM352.73 159.941C353.484 159.985 353.876 159.761 353.904 159.271C353.919 159.014 353.842 158.819 353.673 158.684C353.505 158.543 353.234 158.461 352.861 158.439L351.247 158.346L351.16 159.851L352.73 159.941ZM359.122 155.362C359.986 155.412 360.633 155.659 361.063 156.102C361.5 156.539 361.695 157.175 361.647 158.009L361.449 161.446L360.153 161.372L360.194 160.658C360.011 160.904 359.758 161.088 359.435 161.209C359.12 161.323 358.743 161.368 358.303 161.342C357.864 161.317 357.484 161.222 357.163 161.056C356.842 160.883 356.598 160.66 356.43 160.386C356.27 160.105 356.2 159.796 356.219 159.459C356.25 158.932 356.468 158.522 356.874 158.23C357.288 157.931 357.916 157.805 358.758 157.854L360.273 157.941L360.279 157.853C360.302 157.443 360.196 157.121 359.96 156.887C359.731 156.654 359.375 156.523 358.891 156.495C358.562 156.476 358.233 156.509 357.905 156.592C357.584 156.677 357.309 156.804 357.079 156.975L356.598 155.944C356.919 155.728 357.299 155.57 357.738 155.47C358.178 155.37 358.639 155.335 359.122 155.362ZM358.647 160.359C358.991 160.379 359.299 160.32 359.571 160.181C359.852 160.036 360.055 159.82 360.182 159.533L360.221 158.853L358.804 158.771C358.014 158.725 357.603 158.962 357.573 159.482C357.559 159.731 357.646 159.934 357.836 160.092C358.025 160.25 358.295 160.339 358.647 160.359ZM368.438 155.966L368.1 161.83L366.87 161.759L366.972 159.991L365.424 159.902L364.125 161.601L362.653 161.516L364.15 159.641C363.733 159.47 363.42 159.228 363.211 158.915C363.009 158.595 362.921 158.211 362.946 157.765C362.985 157.091 363.253 156.585 363.75 156.246C364.247 155.908 364.913 155.762 365.748 155.811L368.438 155.966ZM365.725 156.966C364.839 156.915 364.377 157.223 364.339 157.889C364.301 158.548 364.71 158.902 365.567 158.951L367.027 159.035L367.142 157.048L365.725 156.966ZM321.565 164.216C322.429 164.266 323.076 164.512 323.505 164.956C323.943 165.392 324.138 166.028 324.09 166.863L323.892 170.3L322.596 170.225L322.637 169.511C322.454 169.758 322.201 169.942 321.878 170.063C321.563 170.177 321.186 170.221 320.746 170.196C320.307 170.17 319.927 170.075 319.606 169.91C319.285 169.737 319.041 169.513 318.873 169.239C318.713 168.958 318.643 168.649 318.662 168.313C318.693 167.785 318.911 167.376 319.317 167.083C319.731 166.784 320.359 166.658 321.201 166.707L322.716 166.794L322.721 166.707C322.745 166.297 322.639 165.975 322.402 165.741C322.174 165.507 321.817 165.376 321.334 165.348C321.005 165.329 320.676 165.362 320.348 165.446C320.027 165.53 319.752 165.658 319.522 165.828L319.041 164.798C319.362 164.581 319.742 164.423 320.181 164.323C320.62 164.224 321.082 164.188 321.565 164.216ZM321.089 169.213C321.434 169.233 321.742 169.173 322.014 169.035C322.294 168.889 322.498 168.673 322.625 168.387L322.664 167.706L321.247 167.624C320.456 167.579 320.046 167.816 320.016 168.336C320.002 168.584 320.089 168.788 320.279 168.946C320.468 169.103 320.738 169.193 321.089 169.213ZM331.463 164.853L328.352 171.031C328.059 171.653 327.723 172.082 327.342 172.317C326.96 172.559 326.51 172.665 325.99 172.635C325.697 172.619 325.411 172.554 325.131 172.443C324.851 172.331 324.624 172.186 324.451 172.007L325.058 171.028C325.183 171.16 325.331 171.268 325.502 171.351C325.681 171.435 325.862 171.482 326.045 171.493C326.287 171.507 326.488 171.456 326.649 171.34C326.817 171.225 326.975 171.025 327.124 170.74L327.236 170.515L325.017 164.481L326.444 164.563L328.039 169.007L330.145 164.777L331.463 164.853ZM338.041 169.947L337.898 172.418L336.613 172.344L336.689 171.037L332.164 170.777L332.089 172.084L330.815 172.01L330.957 169.539L331.232 169.555C331.606 169.562 331.872 169.339 332.031 168.885C332.197 168.424 332.326 167.771 332.419 166.924L332.612 164.919L337.444 165.197L337.173 169.897L338.041 169.947ZM333.665 167.095C333.597 167.767 333.511 168.313 333.406 168.733C333.301 169.153 333.136 169.459 332.912 169.652L335.8 169.818L336.004 166.282L333.753 166.152L333.665 167.095ZM339.538 165.318L340.91 165.397L340.687 169.263L344.15 165.584L345.402 165.656L345.064 171.52L343.691 171.441L343.914 167.576L340.462 171.255L339.199 171.182L339.538 165.318ZM351.827 167.194L349.773 167.076L349.502 171.776L348.129 171.697L348.4 166.997L346.336 166.878L346.403 165.714L351.894 166.03L351.827 167.194ZM354.903 172.165C354.31 172.13 353.783 171.971 353.322 171.688C352.861 171.404 352.508 171.027 352.263 170.558C352.026 170.082 351.924 169.554 351.958 168.976C351.991 168.397 352.153 167.889 352.442 167.45C352.739 167.012 353.133 166.678 353.624 166.449C354.115 166.221 354.656 166.123 355.249 166.158C355.85 166.192 356.381 166.351 356.842 166.635C357.303 166.919 357.652 167.295 357.889 167.764C358.134 168.234 358.24 168.758 358.206 169.336C358.173 169.914 358.008 170.426 357.71 170.872C357.42 171.311 357.03 171.644 356.54 171.873C356.049 172.102 355.504 172.199 354.903 172.165ZM354.971 170.989C355.476 171.019 355.903 170.874 356.252 170.557C356.601 170.239 356.791 169.805 356.823 169.256C356.854 168.707 356.715 168.255 356.405 167.899C356.095 167.543 355.688 167.351 355.182 167.322C354.677 167.292 354.25 167.437 353.901 167.755C353.56 168.073 353.373 168.506 353.342 169.056C353.31 169.605 353.445 170.057 353.748 170.412C354.058 170.768 354.466 170.96 354.971 170.989ZM362.986 166.603C363.557 166.636 364.059 166.79 364.491 167.065C364.93 167.34 365.265 167.712 365.495 168.18C365.725 168.649 365.823 169.18 365.789 169.773C365.755 170.366 365.596 170.886 365.314 171.332C365.031 171.771 364.656 172.102 364.188 172.325C363.727 172.548 363.211 172.643 362.64 172.611C361.849 172.565 361.238 172.265 360.807 171.712L360.643 174.556L359.271 174.477L359.732 166.482L361.038 166.557L360.994 167.326C361.237 167.061 361.527 166.868 361.865 166.748C362.21 166.629 362.583 166.58 362.986 166.603ZM362.554 171.427C363.059 171.456 363.482 171.311 363.824 170.993C364.173 170.675 364.363 170.242 364.394 169.693C364.426 169.144 364.287 168.691 363.977 168.335C363.674 167.98 363.27 167.788 362.765 167.759C362.436 167.74 362.135 167.799 361.862 167.938C361.59 168.069 361.369 168.27 361.2 168.539C361.03 168.808 360.934 169.126 360.913 169.492C360.892 169.858 360.95 170.185 361.088 170.472C361.226 170.759 361.422 170.987 361.677 171.156C361.932 171.317 362.224 171.408 362.554 171.427ZM367.324 166.92L368.697 166.999L368.474 170.864L371.937 167.186L373.189 167.258L372.851 173.122L371.478 173.043L371.701 169.177L368.249 172.857L366.986 172.784L367.324 166.92ZM379.988 167.65L379.65 173.514L378.42 173.443L378.522 171.675L376.974 171.586L375.675 173.285L374.203 173.2L375.699 171.325C375.283 171.154 374.97 170.912 374.761 170.599C374.559 170.279 374.471 169.895 374.496 169.449C374.535 168.775 374.803 168.269 375.3 167.93C375.797 167.592 376.463 167.446 377.297 167.495L379.988 167.65ZM377.275 168.65C376.389 168.599 375.927 168.907 375.889 169.573C375.851 170.232 376.26 170.586 377.116 170.635L378.577 170.72L378.692 168.732L377.275 168.65Z" fill="white"/>
<circle cx="159" cy="228" r="56" fill="#0059F7"/>
<path d="M127.648 228.8V240H124.528V231.312H121.312L121.248 233.136C121.195 234.736 121.061 236.037 120.848 237.04C120.645 238.043 120.293 238.821 119.792 239.376C119.291 239.92 118.581 240.192 117.664 240.192C117.237 240.192 116.757 240.128 116.224 240L116.4 237.408C116.539 237.44 116.683 237.456 116.832 237.456C117.248 237.456 117.568 237.291 117.792 236.96C118.016 236.629 118.176 236.171 118.272 235.584C118.368 234.987 118.432 234.213 118.464 233.264L118.624 228.8H127.648ZM135.548 240.224C134.364 240.224 133.297 239.973 132.348 239.472C131.409 238.971 130.668 238.277 130.124 237.392C129.59 236.507 129.324 235.509 129.324 234.4C129.324 233.291 129.59 232.293 130.124 231.408C130.668 230.523 131.409 229.829 132.348 229.328C133.297 228.827 134.364 228.576 135.548 228.576C136.732 228.576 137.793 228.827 138.732 229.328C139.681 229.829 140.422 230.523 140.956 231.408C141.5 232.293 141.772 233.291 141.772 234.4C141.772 235.509 141.5 236.507 140.956 237.392C140.422 238.277 139.681 238.971 138.732 239.472C137.793 239.973 136.732 240.224 135.548 240.224ZM135.548 237.6C136.113 237.6 136.625 237.467 137.084 237.2C137.542 236.933 137.905 236.56 138.172 236.08C138.438 235.589 138.572 235.029 138.572 234.4C138.572 233.771 138.438 233.216 138.172 232.736C137.905 232.245 137.542 231.867 137.084 231.6C136.625 231.333 136.113 231.2 135.548 231.2C134.982 231.2 134.47 231.333 134.012 231.6C133.553 231.867 133.19 232.245 132.924 232.736C132.657 233.216 132.524 233.771 132.524 234.4C132.524 235.029 132.657 235.589 132.924 236.08C133.19 236.56 133.553 236.933 134.012 237.2C134.47 237.467 134.982 237.6 135.548 237.6ZM151.658 231.312H146.586V240H143.466V228.8H151.674L151.658 231.312ZM157.626 240.224C156.442 240.224 155.375 239.973 154.426 239.472C153.487 238.971 152.746 238.277 152.202 237.392C151.669 236.507 151.402 235.509 151.402 234.4C151.402 233.291 151.669 232.293 152.202 231.408C152.746 230.523 153.487 229.829 154.426 229.328C155.375 228.827 156.442 228.576 157.626 228.576C158.81 228.576 159.871 228.827 160.81 229.328C161.759 229.829 162.501 230.523 163.034 231.408C163.578 232.293 163.85 233.291 163.85 234.4C163.85 235.509 163.578 236.507 163.034 237.392C162.501 238.277 161.759 238.971 160.81 239.472C159.871 239.973 158.81 240.224 157.626 240.224ZM157.626 237.6C158.191 237.6 158.703 237.467 159.162 237.2C159.621 236.933 159.983 236.56 160.25 236.08C160.517 235.589 160.65 235.029 160.65 234.4C160.65 233.771 160.517 233.216 160.25 232.736C159.983 232.245 159.621 231.867 159.162 231.6C158.703 231.333 158.191 231.2 157.626 231.2C157.061 231.2 156.549 231.333 156.09 231.6C155.631 231.867 155.269 232.245 155.002 232.736C154.735 233.216 154.602 233.771 154.602 234.4C154.602 235.029 154.735 235.589 155.002 236.08C155.269 236.56 155.631 236.933 156.09 237.2C156.549 237.467 157.061 237.6 157.626 237.6ZM174.412 231.312H170.988V240H167.868V231.312H164.428V228.8H174.412V231.312ZM175.872 228.8H178.992V235.376L183.616 228.8H186.592V240H183.472V233.44L178.864 240H175.872V228.8ZM199.509 228.8V240H196.373V231.312H192.117V240H188.997V228.8H199.509Z" fill="white"/>
<path d="M144.224 214.312H140.8V223H137.68V214.312H134.24V211.8H144.224V214.312ZM153.844 217.144C154.506 217.357 155.007 217.688 155.348 218.136C155.7 218.584 155.876 219.139 155.876 219.8C155.876 220.792 155.487 221.576 154.708 222.152C153.94 222.717 152.847 223 151.428 223H145.684V211.8H151.124C152.468 211.8 153.508 212.056 154.244 212.568C154.991 213.069 155.364 213.784 155.364 214.712C155.364 215.256 155.231 215.736 154.964 216.152C154.708 216.568 154.335 216.899 153.844 217.144ZM148.804 216.28H150.82C151.716 216.28 152.164 215.912 152.164 215.176C152.164 214.44 151.716 214.072 150.82 214.072H148.804V216.28ZM151.3 220.728C152.218 220.728 152.676 220.339 152.676 219.56C152.676 218.803 152.218 218.424 151.3 218.424H148.804V220.728H151.3ZM163.095 223.224C161.911 223.224 160.844 222.973 159.895 222.472C158.956 221.971 158.215 221.277 157.671 220.392C157.137 219.507 156.871 218.509 156.871 217.4C156.871 216.291 157.137 215.293 157.671 214.408C158.215 213.523 158.956 212.829 159.895 212.328C160.844 211.827 161.911 211.576 163.095 211.576C164.279 211.576 165.34 211.827 166.279 212.328C167.228 212.829 167.969 213.523 168.503 214.408C169.047 215.293 169.319 216.291 169.319 217.4C169.319 218.509 169.047 219.507 168.503 220.392C167.969 221.277 167.228 221.971 166.279 222.472C165.34 222.973 164.279 223.224 163.095 223.224ZM163.095 220.6C163.66 220.6 164.172 220.467 164.631 220.2C165.089 219.933 165.452 219.56 165.719 219.08C165.985 218.589 166.119 218.029 166.119 217.4C166.119 216.771 165.985 216.216 165.719 215.736C165.452 215.245 165.089 214.867 164.631 214.6C164.172 214.333 163.66 214.2 163.095 214.2C162.529 214.2 162.017 214.333 161.559 214.6C161.1 214.867 160.737 215.245 160.471 215.736C160.204 216.216 160.071 216.771 160.071 217.4C160.071 218.029 160.204 218.589 160.471 219.08C160.737 219.56 161.1 219.933 161.559 220.2C162.017 220.467 162.529 220.6 163.095 220.6ZM171.013 211.8H174.133V218.376L178.757 211.8H181.733V223H178.613V216.44L174.005 223H171.013V211.8ZM176.357 211.128C175.226 211.128 174.394 210.909 173.861 210.472C173.338 210.035 173.077 209.384 173.077 208.52H175.205C175.215 208.893 175.311 209.171 175.493 209.352C175.674 209.533 175.962 209.624 176.357 209.624C176.751 209.624 177.045 209.533 177.237 209.352C177.429 209.171 177.53 208.893 177.541 208.52H179.669C179.669 209.384 179.402 210.035 178.869 210.472C178.335 210.909 177.498 211.128 176.357 211.128Z" fill="white"/>
<g clip-path="url(#clip1)">
<path d="M259.702 125.598L259.792 125.665C276.314 113.413 278.935 94.2876 268.868 88.9493C258.8 83.6112 252.128 96.1944 252.128 96.1944L252.06 96.212C252.06 96.212 240.103 88.4731 233.912 98.0393C227.72 107.605 239.304 122.946 259.702 125.598Z" fill="#AFCCFF"/>
</g>
<path d="M337.38 33.899L333.861 37.4182C333.861 37.4182 333.861 37.4183 333.861 37.4183C333.861 37.4183 333.861 37.4184 333.86 37.4184C332.405 38.8737 330.037 38.8738 328.582 37.4184C327.877 36.7133 327.488 35.7759 327.488 34.7789C327.488 33.7821 327.877 32.8448 328.581 32.1397C328.582 32.1397 328.582 32.1396 328.582 32.1395L332.101 28.6203C332.587 28.1344 332.587 27.3465 332.101 26.8607C331.615 26.3749 330.827 26.3749 330.341 26.8607L326.822 30.3799C326.822 30.3802 326.822 30.3805 326.821 30.3807C325.647 31.5556 325 33.1176 325 34.7789C325 36.4407 325.647 38.0029 326.822 39.178C328.035 40.3908 329.628 40.9972 331.221 40.9972C332.814 40.9972 334.407 40.3908 335.62 39.178V39.1779C335.62 39.1779 335.62 39.1778 335.62 39.1778L339.139 35.6586C339.625 35.1728 339.625 34.3849 339.139 33.899C338.653 33.4132 337.866 33.4132 337.38 33.899Z" fill="#E0EBFF"/>
<path d="M348 24.2211C348 22.5594 347.353 20.9971 346.178 19.8221C343.752 17.3965 339.805 17.3966 337.38 19.8221C337.38 19.8223 337.379 19.8223 337.379 19.8225L333.86 23.3415C333.374 23.8273 333.374 24.6152 333.86 25.101C334.103 25.3441 334.422 25.4655 334.74 25.4655C335.058 25.4655 335.377 25.344 335.62 25.101L339.139 21.5821C339.139 21.5819 339.139 21.5819 339.139 21.5817C340.595 20.1264 342.963 20.1264 344.418 21.5817C345.123 22.2868 345.511 23.2242 345.511 24.2211C345.511 25.218 345.123 26.1552 344.418 26.8603C344.418 26.8604 344.418 26.8605 344.418 26.8606L340.899 30.3798C340.413 30.8656 340.413 31.6534 340.899 32.1393C341.142 32.3823 341.46 32.5038 341.779 32.5038C342.097 32.5038 342.416 32.3823 342.659 32.1393L346.178 28.6202C346.178 28.6199 346.178 28.6196 346.178 28.6193C347.353 27.4444 348 25.8824 348 24.2211Z" fill="#E0EBFF"/>
<path d="M332.101 33.8989C332.344 34.1419 332.662 34.2634 332.981 34.2634C333.299 34.2634 333.618 34.1419 333.861 33.8989L340.899 26.8605C341.385 26.3747 341.385 25.5869 340.899 25.1009C340.413 24.6151 339.625 24.6151 339.139 25.1009L332.101 32.1393C331.615 32.6252 331.615 33.4131 332.101 33.8989Z" fill="#E0EBFF"/>
<g clip-path="url(#clip2)">
<path d="M295.908 43.7223C295.684 42.9642 295.034 42.4097 294.25 42.3075L286.808 41.2795L283.863 34.2431C283.434 33.2132 282.25 32.7268 281.22 33.1567C280.729 33.3617 280.339 33.7521 280.134 34.243L277.189 41.2795L269.748 42.3074C268.639 42.4618 267.865 43.4857 268.02 44.5944C268.086 45.0708 268.32 45.5081 268.679 45.8281L274.285 50.8277L273.133 58.6731C273.009 59.4698 273.374 60.2635 274.061 60.686C274.738 61.119 275.609 61.1028 276.27 60.645L281.999 56.7493L287.727 60.6489C288.652 61.2763 289.909 61.0356 290.537 60.1112C290.822 59.6911 290.939 59.1792 290.864 58.6771L289.712 50.8288L295.319 45.8292C295.914 45.3049 296.145 44.4795 295.908 43.7223Z" fill="#E0EBFF"/>
</g>
</g>
<defs>
<filter id="filter0_f" x="122" y="-5" width="93" height="93" filterUnits="userSpaceOnUse" color-interpolation-filters="sRGB">
<feFlood flood-opacity="0" result="BackgroundImageFix"/>
<feBlend mode="normal" in="SourceGraphic" in2="BackgroundImageFix" result="shape"/>
<feGaussianBlur stdDeviation="12.5" result="effect1_foregroundBlur"/>
</filter>
<filter id="filter1_f" x="502" y="111" width="93" height="93" filterUnits="userSpaceOnUse" color-interpolation-filters="sRGB">
<feFlood flood-opacity="0" result="BackgroundImageFix"/>
<feBlend mode="normal" in="SourceGraphic" in2="BackgroundImageFix" result="shape"/>
<feGaussianBlur stdDeviation="12.5" result="effect1_foregroundBlur"/>
</filter>
<filter id="filter2_f" x="416" y="223" width="104" height="104" filterUnits="userSpaceOnUse" color-interpolation-filters="sRGB">
<feFlood flood-opacity="0" result="BackgroundImageFix"/>
<feBlend mode="normal" in="SourceGraphic" in2="BackgroundImageFix" result="shape"/>
<feGaussianBlur stdDeviation="12.5" result="effect1_foregroundBlur"/>
</filter>
<linearGradient id="paint0_linear" x1="763.782" y1="201.529" x2="233.415" y2="245.274" gradientUnits="userSpaceOnUse">
<stop stop-color="#E9EDFF"/>
<stop offset="1" stop-color="#E9EDFF" stop-opacity="0"/>
</linearGradient>
<linearGradient id="paint1_linear" x1="539.692" y1="345.835" x2="68.8843" y2="42.0887" gradientUnits="userSpaceOnUse">
<stop stop-color="white"/>
<stop offset="0.9999" stop-color="white" stop-opacity="0"/>
<stop offset="1" stop-color="#E9EDFF" stop-opacity="0"/>
</linearGradient>
<linearGradient id="paint2_linear" x1="351" y1="85.9995" x2="102" y2="265.5" gradientUnits="userSpaceOnUse">
<stop stop-color="#C4D8FD" stop-opacity="0.02"/>
<stop offset="0.410918" stop-color="#0059F7" stop-opacity="0.13"/>
<stop offset="1" stop-color="white" stop-opacity="0"/>
</linearGradient>
<linearGradient id="paint3_linear" x1="393.577" y1="435.063" x2="345.893" y2="355.781" gradientUnits="userSpaceOnUse">
<stop stop-color="#CBE9FF"/>
<stop offset="1" stop-color="white"/>
</linearGradient>
<linearGradient id="paint4_linear" x1="337.024" y1="276.429" x2="405.933" y2="369.283" gradientUnits="userSpaceOnUse">
<stop stop-color="white"/>
<stop offset="1" stop-color="#8CBDEB"/>
</linearGradient>
<linearGradient id="paint5_linear" x1="347.457" y1="373.6" x2="348.271" y2="458.142" gradientUnits="userSpaceOnUse">
<stop stop-color="#EDF4FB"/>
<stop offset="1" stop-color="#E3F3FF"/>
</linearGradient>
<linearGradient id="paint6_linear" x1="339.035" y1="293.567" x2="409.582" y2="364.983" gradientUnits="userSpaceOnUse">
<stop stop-color="white"/>
<stop offset="1" stop-color="#DEEBF8"/>
</linearGradient>
<linearGradient id="paint7_linear" x1="211.242" y1="-48.6904" x2="431.911" y2="107.249" gradientUnits="userSpaceOnUse">
<stop stop-color="#5E6EA8"/>
<stop offset="1" stop-color="#2C375E"/>
</linearGradient>
<linearGradient id="paint8_linear" x1="364.735" y1="240.682" x2="301.203" y2="110.66" gradientUnits="userSpaceOnUse">
<stop stop-color="#2DB27C"/>
<stop offset="1" stop-color="#37DD9A"/>
</linearGradient>
<linearGradient id="paint9_linear" x1="348.192" y1="232.264" x2="383.087" y2="219.213" gradientUnits="userSpaceOnUse">
<stop stop-color="#FFA794"/>
<stop offset="1" stop-color="#FF8686"/>
</linearGradient>
<linearGradient id="paint10_linear" x1="390.438" y1="101.88" x2="354.109" y2="143.669" gradientUnits="userSpaceOnUse">
<stop stop-color="#51D9A4"/>
<stop offset="1" stop-color="#4DC394"/>
</linearGradient>
<linearGradient id="paint11_linear" x1="361.666" y1="109.972" x2="345.872" y2="129.287" gradientUnits="userSpaceOnUse">
<stop stop-color="#FF8C86"/>
<stop offset="1" stop-color="#FFA794"/>
</linearGradient>
<linearGradient id="paint12_linear" x1="383" y1="78" x2="314.697" y2="25.393" gradientUnits="userSpaceOnUse">
<stop stop-color="#293461"/>
<stop offset="1" stop-color="#818EB9"/>
</linearGradient>
<linearGradient id="paint13_linear" x1="369.94" y1="102.089" x2="335.314" y2="92.4242" gradientUnits="userSpaceOnUse">
<stop stop-color="#FFA293"/>
<stop offset="1" stop-color="#FFB398"/>
</linearGradient>
<linearGradient id="paint14_linear" x1="231.156" y1="211.732" x2="249.081" y2="164.801" gradientUnits="userSpaceOnUse">
<stop stop-color="#FF9393"/>
<stop offset="1" stop-color="#FFBDA1"/>
</linearGradient>
<linearGradient id="paint15_linear" x1="41.0001" y1="161.501" x2="330.501" y2="98.0033" gradientUnits="userSpaceOnUse">
<stop stop-color="#0059F7" stop-opacity="0"/>
<stop offset="0.446033" stop-color="#0059F7"/>
<stop offset="1" stop-color="#0059F7" stop-opacity="0"/>
</linearGradient>
<linearGradient id="paint16_linear" x1="41.0001" y1="161.501" x2="330.501" y2="98.0033" gradientUnits="userSpaceOnUse">
<stop stop-color="#0059F7" stop-opacity="0"/>
<stop offset="0.265625" stop-color="#0059F7" stop-opacity="0.185243"/>
<stop offset="0.534207" stop-color="#0059F7"/>
<stop offset="0.770833" stop-color="#0059F7" stop-opacity="0.279541"/>
<stop offset="1" stop-color="#0059F7" stop-opacity="0"/>
</linearGradient>
<linearGradient id="paint17_linear" x1="221.754" y1="364.971" x2="329.602" y2="172.325" gradientUnits="userSpaceOnUse">
<stop stop-color="#0059F7" stop-opacity="0"/>
<stop offset="0.265625" stop-color="#0059F7" stop-opacity="0.185243"/>
<stop offset="0.534207" stop-color="#0059F7"/>
<stop offset="0.770833" stop-color="#0059F7" stop-opacity="0.279541"/>
<stop offset="1" stop-color="#0059F7" stop-opacity="0"/>
</linearGradient>
<clipPath id="clip0">
<rect width="644" height="476" fill="white"/>
</clipPath>
<clipPath id="clip1">
<rect width="43" height="43" fill="white" transform="translate(229 92.8215) rotate(-14.5761)"/>
</clipPath>
<clipPath id="clip2">
<rect width="28" height="28" fill="white" transform="translate(268 33)"/>
</clipPath>
</defs>
</svg>